<svg id="svg870" xmlns="http://www.w3.org/2000/svg" viewBox="0 0 612.59 64.19">
  <defs>
    <style>
      .cls-1 {
        fill: #f06543;
        stroke: #000;
        stroke-linecap: round;
        stroke-miterlimit: 3.31;
        stroke-width: 0.59px;
        fill-rule: evenodd;
      }
    </style>
  </defs>
  <g id="svgGroup">
    <path id="path867" class="cls-1" d="M187.84,51.15l-.32,1a2,2,0,0,0-.57.77.73.73,0,0,1-.14.26.58.58,0,0,1-.17.18.39.39,0,0,1-.1.08,4.5,4.5,0,0,1-.56,1.78c-.06.15-.11.3-.16.44s-.06.22-.08.33a1,1,0,0,0,0,.17c0,.11,0,.19,0,.26v.1a2,2,0,0,1,0,.34.92.92,0,0,1-.38.71,1.84,1.84,0,0,1,0,.41,2.8,2.8,0,0,1,0,.4v0l-.12.64c0,.07,0,.14,0,.21a4.07,4.07,0,0,0-.16,1.53l.2.27.18.23.06.07a1.38,1.38,0,0,1,.27.57s0,.05,0,.08a4.6,4.6,0,0,0,.59.34.75.75,0,0,0,.13.06,6.18,6.18,0,0,0,.85.5l.12.07.73.8c0,.23.07.45.09.68a5.18,5.18,0,0,1-.13,1.7,3.43,3.43,0,0,1-.69,1.34c-.8,1-2.18,1.54-4.12,1.54h-1a2.42,2.42,0,0,1-.43-.53,1.34,1.34,0,0,1-.06-.12l-.3-.11-.75-.29a1.57,1.57,0,0,1-.64-.53l-.08-.12c-.71-.32-1.27-.59-1.7-.81l-.73-.4v-1a5.24,5.24,0,0,1-.85-1.62,12.5,12.5,0,0,1-.44-1.78c-.08-.34-.17-.69-.27-1a3.37,3.37,0,0,0-.1-.34,5.6,5.6,0,0,0-.26-.68c-.08-.15-.17-.31-.26-.45q0-.62,0-1.23a21.69,21.69,0,0,1,.92-6.7c.59-1.84,1.23-3.66,1.9-5.47.09-.25.18-.5.28-.76q.64-1.61,1.29-3.27a31.44,31.44,0,0,0,1.13-3.44l.73-.81.27-.61c.26-.6.48-1.1.66-1.53s.49-1.12.75-1.68l0-.06c.12-.27.23-.55.34-.82l.11-.27q.19-.53.36-.93h-.47l-.42,0-.81.12c-.32.06-.62.1-.89.13s-.54,0-.81,0h-.26a1.83,1.83,0,0,1-.55-.08,4.41,4.41,0,0,1-1.71.4h-1.29l-.19,0-.17,0h-.19l-.51,0a2.79,2.79,0,0,0-.45.08l-.34.13h-2.92l-.15,0-.29,0h-.11a5.63,5.63,0,0,1-.71,0l-.51-.08A4.53,4.53,0,0,1,169,31.9a4.65,4.65,0,0,0-1.28-1.37h0l-.72-1a5.79,5.79,0,0,0-.25-.93c0-.16-.11-.31-.16-.47l-.15-.52v0c-.21-.54-.42-1.12-.61-1.74a6.56,6.56,0,0,1-.19-.88,9.72,9.72,0,0,1-.08-1c0-.12,0-.24,0-.36a2.12,2.12,0,0,1,.32-1h0l.18-.23.15-.22.08-.12.24-1.21,1,.08h2.27c1.72,0,3.47-.07,5.25-.2s3.43-.27,5.15-.42l.35,0,3.28-.32,2.55-.24.88-.09.48-1c.06-.11.11-.23.17-.34l.81-.4a3.57,3.57,0,0,1,2,.3l.09.06c.17.12.33.25.49.38s.28.24.4.35l.12.12c1.2-.11,2.4-.23,3.6-.37s2.46-.31,3.68-.52q2.76-.4,5.54-.73c1.35-.16,2.71-.26,4.07-.3l1.3,0q.94,0,1.89.06l.3,0a17.42,17.42,0,0,1,1.94.24l.81.57a2.79,2.79,0,0,0,.49.69l.19.2.93.81c.38.35.75.71,1.1,1.1s.57.66.84,1a3.55,3.55,0,0,1,.43.7l.34-.07,1.74-.39c.9-.29,1.8-.57,2.7-.83s1.61-.44,2.35-.62l.73-.17c1.66-.37,3.33-.68,5-.93,1.27-.18,2.54-.36,3.81-.52l1.32-.16c.83-.1,1.65-.22,2.48-.35,1.12-.17,2.31-.38,3.59-.62a4.55,4.55,0,0,0,.4.35,2.39,2.39,0,0,0,.43.25,1.25,1.25,0,0,0,.54.12,1.74,1.74,0,0,1,.1-.19c.19-.33.41-.41.66-.25h0l.07,0c.24.12.34,0,.29-.49a7.75,7.75,0,0,0,2.06,2.31,13.32,13.32,0,0,0,2.51,1.45l.28.13,0,.22a2.17,2.17,0,0,1,0,.62,2.36,2.36,0,0,1,0,.28,2.17,2.17,0,0,1,0,.25c0,.11,0,.21,0,.32a1.48,1.48,0,0,0,0,.21,3,3,0,0,0,.11.65,1.33,1.33,0,0,1,0,.19,12.08,12.08,0,0,1-1.31,1.79,7.83,7.83,0,0,1-2.61,2,19,19,0,0,1-4.17,1.34l-.64.12c-1.76.3-3.53.61-5.29.93a15,15,0,0,0-3.71,1.2,17.9,17.9,0,0,0-1.67.9l-.51-.15a2.81,2.81,0,0,0-.49,0,2.15,2.15,0,0,0-.9.2,2.31,2.31,0,0,1-.56.19,5.46,5.46,0,0,1-1.46.09l-.45,0a2.44,2.44,0,0,1-1,.6l-.24.08c-.49.14-1,.29-1.46.45a3.23,3.23,0,0,1,.29,1.49,2.62,2.62,0,0,0,.13,1.09s0,.11.07.17c.68.05,1.36.09,2,.1a39.24,39.24,0,0,0,4.23-.18c2.29-.22,4.54-.35,6.75-.41,0,0,0,.07,0,.1,0,.21,0,.36-.09.43s-.14.23-.08.44a6.21,6.21,0,0,1,.63.52c.17.16.34.32.5.49.37.4.75.79,1.13,1.17a6.13,6.13,0,0,0,.72.63l.45.3a2,2,0,0,0,1,.3,3.73,3.73,0,0,0,.47,0,4.94,4.94,0,0,1,.44,1.41,3,3,0,0,1,0,.43,3,3,0,0,1-.24,1.15c-.87.6-1.73,1.2-2.59,1.82a21.35,21.35,0,0,1-2.71,1.66,15.73,15.73,0,0,1-3,1.17,9.67,9.67,0,0,1-1.77.32,10.84,10.84,0,0,1-1.16.06l-.59,0H230l-.14,0a1.34,1.34,0,0,1-.29-.15l-.1-.07a1.91,1.91,0,0,1-.53.22,3.65,3.65,0,0,1-1.29,0l-.32,0a2.71,2.71,0,0,0-1.33.18l-.17.1a3.53,3.53,0,0,0-.94-.29,5,5,0,0,0-1-.08h-.5a6.63,6.63,0,0,1-1-.08,4.73,4.73,0,0,1-.92-.21,26.67,26.67,0,0,0-2.35,3.64,32.12,32.12,0,0,0-1.85,4.1v0c.54.08,1.09.15,1.63.21a21.22,21.22,0,0,0,2.86.12h.08c.8,0,1.61-.1,2.41-.17l1-.12,3.31-.4c.33,0,.65-.07,1-.09.76,0,1.62-.07,2.59,0l.72,0a9.2,9.2,0,0,1,2-.81,12.62,12.62,0,0,1,1.83-.37,19.68,19.68,0,0,0,4.08-.93,2.56,2.56,0,0,1,.9.59,2.85,2.85,0,0,1,.23.26l.48.59.45.55a9.28,9.28,0,0,0,.69.71l.24.22a1.53,1.53,0,0,0,.86.33H245a1.75,1.75,0,0,1,.44.77c.06.19.1.39.15.59a2,2,0,0,1,.05.26,2.15,2.15,0,0,0,.11.36,1.65,1.65,0,0,0,.18.32.61.61,0,0,0,.59.22h.09a16.67,16.67,0,0,1-1,1.82,9.91,9.91,0,0,1-1.83,2.26,10.81,10.81,0,0,1-3.59,2.14,22.74,22.74,0,0,1-2.56.75c-.64.15-1.28.28-1.93.38l-2.6.45-2.86.52a2.84,2.84,0,0,1-.31.06,1.87,1.87,0,0,1-.63,0,.77.77,0,0,1-.27-.08,2.94,2.94,0,0,0-.58-.16,3.39,3.39,0,0,0-.55,0c-.95.21-2,.4-3.28.57L223.5,68a34,34,0,0,1-5.26.24,24.06,24.06,0,0,1-4.48-.54l-.61-.15a9.5,9.5,0,0,1-2.14-.8,7.26,7.26,0,0,1-1.82-1.34,2.57,2.57,0,0,1-.85-1.33,1.68,1.68,0,0,0-.62-.9,2.78,2.78,0,0,0-.47-.28c0-.36-.07-.73-.12-1.09s-.12-.76-.19-1.17l0-.08-.36-2-.12-.7c-.16-.92-.28-1.85-.37-2.79a8.54,8.54,0,0,1,.12-2.51,5.25,5.25,0,0,1,1-2.18,2.42,2.42,0,0,0,.54-2.07v0a.74.74,0,0,0,.21-.07.54.54,0,0,0,.28-.38.31.31,0,0,1,.11-.19.66.66,0,0,1,.52-.09h0c.24-.7.49-1.4.78-2.09l.27-.66c.37-.84.76-1.68,1.18-2.51s.81-1.64,1.21-2.46c.24-.49.46-1,.67-1.5s.34-.86.5-1.29a7.38,7.38,0,0,1-1.07-1.23,6.58,6.58,0,0,1-.59-1.07,13.09,13.09,0,0,1-.7-2.2l-.06-.31c-.17-.86-.3-1.72-.41-2.59,0-.44-.12-.88-.21-1.31-.43,0-.85,0-1.28.07-.66,0-1.32.11-2,.19-1.53.18-3.07.39-4.6.61-.79.11-1.57.22-2.36.31l-.76.09L198,29.7l-1.29.1c-.16.53-.34,1.06-.53,1.58s-.35,1-.52,1.39c0,.06-.05.12-.08.19-.38.91-.78,1.8-1.21,2.66s-.82,1.85-1.17,2.79c-.25.68-.49,1.36-.71,2.05-.1.32-.21.66-.3,1-.25.38-.48.77-.7,1.16s-.4.73-.57,1.08c0,0-.05.09-.07.14a11.3,11.3,0,0,0-.55,1.4c-.11.35-.21.71-.3,1.07a9.53,9.53,0,0,0-1.12,1.76,6.5,6.5,0,0,0-.33.78q-.37,1-.6,1.83C187.92,50.83,187.88,51,187.84,51.15ZM51.91,48.64l3.88-3a10.51,10.51,0,0,0,1.44-1.31,16.69,16.69,0,0,0,1.68-2.12c.52-.78,1-1.58,1.47-2.39s1-1.79,1.44-2.71q1.41-2.86,2.79-6.23c.94-2.29,1.85-4.6,2.75-6.91q1-2.58,2-5.13c.49-1.24,1-2.47,1.54-3.69.17-.39.34-.78.52-1.17.34-.73.68-1.47,1-2.2s.67-1.34,1-2c.27-.51.55-1,.85-1.5A19.79,19.79,0,0,1,75.44,6.6c.69.43,1.36.88,2,1.36s1.18.9,1.74,1.38a17.15,17.15,0,0,1,2.75,3,13.87,13.87,0,0,1,1.86,3.8,20,20,0,0,1,.53,2,30.13,30.13,0,0,1,.48,3c-1.19,2.28-2.3,4.6-3.31,7S79.45,33,78.43,35.38q-1.94,4.69-4,9.34a83,83,0,0,1-4.57,8.86,51.08,51.08,0,0,1-5.62,7.72,30.5,30.5,0,0,1-7.15,5.94A11.54,11.54,0,0,0,55.55,67h-.4q-.32,0-.63,0a3.47,3.47,0,0,0-.87.21,4,4,0,0,0-1.09.65,12.79,12.79,0,0,1-5.34-4.57c-.87-1.31-1.69-2.64-2.46-4-.52-.9-1-1.82-1.5-2.74-.16-.38-.34-.74-.53-1.09s-.29-.55-.44-.81l-.16-.29-1.38-2.5-.81-1.54-1.13,1-1.7,1.54-1,1c-1.67,1.56-3.36,3.09-5.09,4.57a48.57,48.57,0,0,1-5.42,4,29.23,29.23,0,0,1-6,2.95,21.46,21.46,0,0,1-5.93,1.18l-.9,0-1.18-.57-.89-.43-.12-.06c-.95-.45-1.77-.89-2.47-1.31l-.6-.38c-.27-.19-.54-.39-.8-.6a20.9,20.9,0,0,1-2-1.84l-.07-.07c-.2-.43-.4-.86-.61-1.29C4,60,4,59.86,3.88,59.72L3.48,59c-.13-.23-.27-.46-.41-.68-.55-1.12-1-2.13-1.49-3l-.21-.44c-.25-.54-.48-1.08-.69-1.63S.25,52,0,51.36l0-.13c.15-.84.4-2.21.76-4.11l.09-.5c.21-1.13.43-2.26.66-3.38s.5-2.47.75-3.69C2.8,37,3.38,34.38,4,31.74q.72-3,1.45-5.4c.14-.47.3-.93.45-1.39.31-.86.62-1.73.94-2.59s.69-1.83,1-2.75a41.19,41.19,0,0,1,2.43-5.21c.42-.76.89-1.5,1.38-2.22a20.56,20.56,0,0,1,1.49-1.86,7.59,7.59,0,0,1,1.19-1.08,5.21,5.21,0,0,1,1.77-.87l.36-.08a3.87,3.87,0,0,0,.49.57,2.93,2.93,0,0,0,.56.44,4.74,4.74,0,0,0,.91.48l.14.05c.38.54.77,1.07,1.19,1.58s.81,1,1.2,1.41l.28.28a17.43,17.43,0,0,0,1.61,1.49c.47.4,1,.78,1.46,1.14-.17.83-.36,1.66-.58,2.48s-.52,1.89-.84,2.9c-.62,2-1.26,3.95-1.94,5.94q-.86,2.55-1.73,5.08c-.09.24-.17.47-.25.7-.64,1.86-1.16,3.47-1.53,4.82-.15.5-.3,1-.43,1.5s-.27,1.06-.41,1.63c0,.2-.09.39-.13.59-.27,1.18-.56,2.61-.85,4.28-.16.88-.3,1.75-.44,2.63s-.28,1.91-.41,2.87a5.64,5.64,0,0,0,.92-.35,11.73,11.73,0,0,0,1.62-.94c.81-.55,1.58-1.14,2.33-1.76l.3-.27c1-.8,1.92-1.67,2.83-2.58.52-.52,1-1,1.52-1.57s.87-1,1.26-1.39l.38-.44a35.23,35.23,0,0,0,2.38-3.19q.57-.87,1.11-1.74c.39-.63.78-1.26,1.16-1.9l.94-1.6c.56-.94,1.17-2,1.85-3.13.5-.81,1-1.62,1.48-2.43s1-1.72,1.55-2.59c.89-1.51,1.82-3,2.79-4.48l.4-.61c.65-1,1.31-1.94,2-2.89.38-.54.77-1.07,1.17-1.6s.7-.92,1.07-1.36.68-.79,1-1.12a10,10,0,0,1,.75-.71c.31.31.63.61,1,.91s.72.64,1.1.95a7.25,7.25,0,0,0,2.1,1.23l.44.14c.38.6.75,1.12,1.1,1.58l.88,1.17.13.16c.2.29.41.57.61.85l.56.77a9.87,9.87,0,0,1,.77,1.28l.16.34-.06.44c-.06.36-.13.77-.22,1.26s-.15.73-.22,1.1-.15.8-.23,1.2c-.16.85-.34,1.7-.52,2.55s-.32,1.47-.47,2.2l-.06.31c-.41,1.85-.75,3.36-1,4.52l-.21,1q-.41,1.86-.57,2.91c-.07.49-.13.92-.16,1.3,0,.16,0,.32,0,.48s0,.27,0,.4c0,.44,0,1,0,1.62a11.46,11.46,0,0,0,.16,1.94c.11.61.23,1.22.36,1.82A4.78,4.78,0,0,0,51.91,48.64ZM319,65.7h-.24c-.58.08-1.17.18-1.75.29l-.55.12c-.75.17-1.49.35-2.23.57a8.08,8.08,0,0,1-1,.24l-.5.1-.55.14c-.64-.14-1.29-.27-1.94-.37l-.85-.11q-.56-.08-1.11-.12c-.45,0-.88,0-1.27,0l-1.22-.32c-.64-.22-1.13-.39-1.45-.53a7.26,7.26,0,0,0-1.81-.5l-.17,0-.34,0-.9-.12-.5-.07a7.15,7.15,0,0,1-2.67.56,5.65,5.65,0,0,1-1.23-.13q-.32-.06-.63-.15a4,4,0,0,1-1-.43,5.89,5.89,0,0,1-1-.7,7.57,7.57,0,0,1-.83-.87,11.24,11.24,0,0,1-1-1.48,11.37,11.37,0,0,1-.68-1.35,18.94,18.94,0,0,1-.86-2.49c.06-.44.13-.88.2-1.33.11-.69.24-1.33.37-1.9.06-.27.13-.54.2-.81.15-.53.29-1,.43-1.34l0,0,.64-.72a8.11,8.11,0,0,1,1.88-.48,11.48,11.48,0,0,1,1.44-.09,10.94,10.94,0,0,1,3.48.57c1.14.38,2.27.78,3.39,1.21l.34.15.71.33.49.25.14.05a1.26,1.26,0,0,0,.3,0h1l.56,0,.21,0,.47-.07.3-.05,1,.08a2.52,2.52,0,0,0,.71.26,3.55,3.55,0,0,0,.67.06,4.26,4.26,0,0,0,.86-.09l.31-.07,1.17-.31h.08a4.19,4.19,0,0,1,.46-.16,4.39,4.39,0,0,1,.67-.17,3.75,3.75,0,0,0,.58-.13l.31-.11.81-.73.54-.24c.16-.09.31-.18.44-.27a1.86,1.86,0,0,0,.27-.22,4.06,4.06,0,0,0,.77-.93c.22-.35.42-.72.61-1.09a7.71,7.71,0,0,1,.7-1.12l.07-.09c.26-.32.52-.64.77-1a7.4,7.4,0,0,1,.76-.89v-.81a62.48,62.48,0,0,0,2.27-6.06q1-3,1.7-6.15.61-2.61,1.11-5.25c.05-.25.1-.49.14-.73.16-.91.33-1.82.49-2.73s.29-1.68.43-2.45v-.08a2.7,2.7,0,0,1-.49,0l-.29,0H324c-.94,0-1.77,0-2.47.06l-.33,0q-.82,0-1.65.12c-.4,0-.79.07-1.18.12q-1,.12-1.92.3l-.79.15-.76.15L312,23.5l-1.37.24c-.72.34-1.43.66-2.15,1l-.81.35a7.29,7.29,0,0,1-2.95.61,5.43,5.43,0,0,1-3.89-1.62l-.31-.32a4.62,4.62,0,0,1-1.32-1.17,4.2,4.2,0,0,1-.78-2.07,2.62,2.62,0,0,1-.22-.48,2.06,2.06,0,0,1-.12-.67,1.55,1.55,0,0,1,0-.22,9.51,9.51,0,0,1-.36-2.06l0-.9c0-.28,0-.56,0-.84l.08-1.38H299c.33-.32.55-.56.69-.72a1.55,1.55,0,0,0,.28-.56h0l.24-.81.81-.08c1.17-.17,2.32-.35,3.48-.57s2.4-.45,3.64-.72l2.31-.41.88-.16c.59-.11,1.19-.2,1.78-.28l.77-.08c.78-.08,1.56-.13,2.35-.16h.16c.74,0,1.58,0,2.52,0h.47l.62,0a5.07,5.07,0,0,1,.55,0l.94,0h.15c.06-.08.13-.15.19-.22a1.18,1.18,0,0,1,.46-.27l.41-.08h.07l.27,0,.47.09.11,0,.17.05a2.26,2.26,0,0,1,.26.11h0q1.31-.23,2.64-.39c.8-.1,1.6-.17,2.41-.21,1.53-.08,2.9-.12,4.14-.12h1.81c.43,0,.86,0,1.28,0l.41,0H342a2.63,2.63,0,0,1,.49-.07h2.62l.29,0,.16,0,.64.08c.22,0,.52.06.89.12l1.32.22c.39.06.79.13,1.19.18a15.61,15.61,0,0,0,2.26.16l1.54-.08.24,1,.73,1a3.34,3.34,0,0,0,.65.89h0c.2.21.42.41.64.6l.25.21a12.91,12.91,0,0,1,1,1c.3.36.61.76.91,1.19l0,0a3.87,3.87,0,0,1,.53,1.17,7.53,7.53,0,0,1,.16,2.67l-.73,1a3.06,3.06,0,0,0-.61.4l-.29.26-.32.31-.8.73-.75.05-.55,0-.48,0-.77,0h-.85c-1,0-2,0-2.95-.08-.77,0-1.54-.09-2.31-.12l-.8-.05c-.49,0-.89-.07-1.2-.07h-1.45l-.4,0h-.15l-.83,0h-1.92l-.64.06-.13,0c0,.68-.1,1.37-.18,2.06s-.18,1.28-.3,1.86l-.12.56c-.2.83-.41,1.64-.64,2.46-.14.52-.3,1-.45,1.55q-1.11,5.75-2.7,11.38c-.33,1.2-.69,2.39-1.06,3.57-.8,2.53-1.69,5-2.67,7.48q-1.07,2.65-2.31,5.22c-.82.88-1.67,1.75-2.52,2.6s-1.59,1.54-2.41,2.29A13.49,13.49,0,0,1,319,65.7ZM459.45,20.26l1.21-.24a7.23,7.23,0,0,1,1.18,1.23c.14.19.27.39.4.59a6.72,6.72,0,0,1,.93,2.3,5.18,5.18,0,0,1,.1,1,4.67,4.67,0,0,1-.18,1.29,2.7,2.7,0,0,1-.88,1.3,4.73,4.73,0,0,1-.66.44l0,.16a1.67,1.67,0,0,1,0,.37.17.17,0,0,1,0,.07,1,1,0,0,1-.06.23l-.06.14a.75.75,0,0,0-.07.18.61.61,0,0,0,0,.14.36.36,0,0,0,0,.1,1.2,1.2,0,0,0,.22.38,7,7,0,0,0-1.91,2.25,7.88,7.88,0,0,0-.51,1.15,14.16,14.16,0,0,0-.83,3.2c0,.23-.05.45-.06.68a25.3,25.3,0,0,1,2.14-1.9c.79-.63,1.6-1.23,2.43-1.82l1.83-1.29.59-.41a25.93,25.93,0,0,0,2.14-1.61c.8-.73,1.61-1.42,2.46-2.07a28.23,28.23,0,0,1,2.35-1.65l.33-.21c.85-.51,1.7-1,2.54-1.58s1.79-1.17,2.67-1.77a2.41,2.41,0,0,1,.84-.08l.17,0,.48.17.29.11c0-.32-.09-.51-.28-.56s-.26-.27-.2-.65c.33-.09.67-.19,1-.31a8.67,8.67,0,0,0,1.1-.46q.58-.29,1.17-.54l.77-.31q.72.72,1.38,1.5a2.56,2.56,0,0,0,1.32.83,3.63,3.63,0,0,0,.45.1,5.76,5.76,0,0,0,.33.6,2.74,2.74,0,0,0,.65.73c.37.29.74.58,1.13.85a5.14,5.14,0,0,1,1,1,2.34,2.34,0,0,1,.27.49,4.34,4.34,0,0,1,.25,1.29l-.33.59c-.12.21-.24.41-.35.62s-.24.44-.34.66-.21.49-.31.76c0,0,0,.08,0,.12a30.72,30.72,0,0,1-2.6,2.11l-.68.48c-1.1.75-2.22,1.48-3.35,2.18s-2.31,1.41-3.48,2.1q-1.15.69-2.25,1.47c-.47.34-.93.68-1.39,1a4.23,4.23,0,0,1-.82.87l-.19.14-1.25.89a13.85,13.85,0,0,0-1.21.93,3.49,3.49,0,0,0-.89,1.13,1.61,1.61,0,0,1-.48.08h0a1.56,1.56,0,0,0-.48.08h0a1.91,1.91,0,0,1-.77.89,1.53,1.53,0,0,0-.69.89,11.18,11.18,0,0,0,1.2,2,8.5,8.5,0,0,0,1.95,1.93,13,13,0,0,0,4.37,2,22.2,22.2,0,0,0,3.44.55c.61.06,1.21.08,1.82.09,1.46,0,2.92,0,4.38,0h1.52l.12,0A.28.28,0,0,0,487,52h0c0-.19.1-.26.37-.2a9.18,9.18,0,0,1,1.38.58,6.41,6.41,0,0,1,1.3.92c.11.1.21.21.31.32a17.86,17.86,0,0,0,1.31,1.3c.38.35.78.68,1.19,1a9.63,9.63,0,0,1-.43,2.49A7.58,7.58,0,0,1,491,61a12,12,0,0,1-4.52,3.23c-.63,0-1.26,0-1.89,0-1,0-2,0-2.88,0-.69,0-1.38-.09-2.07-.16a20,20,0,0,1-5.78-1.54l-.1-.07a1.34,1.34,0,0,1-.22-.33c0-.07-.07-.13-.1-.19l-.11-.17a1.42,1.42,0,0,0-.12-.13,2,2,0,0,0-.54-.17,3,3,0,0,0-.43,0h-.4a3.3,3.3,0,0,1-.94-.12h0l-.37-.2q-.62-.36-1.65-1l-1.32-.9-1.19-.84c-.71-.55-1.4-1.12-2.09-1.7l-.66-.57a16.5,16.5,0,0,1-2.08-2.18l-.18-.24a.91.91,0,0,0-.61-.36h0a1.8,1.8,0,0,1-.45-.09l-.28-.11a14.19,14.19,0,0,0-4,3.64c-1.07,1.45-2.1,2.93-3.07,4.45a52,52,0,0,1-3.07,4.28,10.24,10.24,0,0,1-4.13,3.08,3.08,3.08,0,0,1-.68-.07,2.52,2.52,0,0,1-.61-.18,4.93,4.93,0,0,1-1.05-.6c-.32-.24-.64-.47-1-.69a3.86,3.86,0,0,0-1.05-.49,4.36,4.36,0,0,0-.37-1.78c-.17-.39-.36-.78-.54-1.16-.06-.13-.12-.25-.19-.37a7.27,7.27,0,0,1-.34-.81,6.13,6.13,0,0,1-.18-.61,1.27,1.27,0,0,1,0-.34,1.63,1.63,0,0,1,.36-1,4.17,4.17,0,0,0-.38-.34,9.43,9.43,0,0,0-1.07-.71,2.31,2.31,0,0,0,.2-.24,1,1,0,0,0,.24-.59v-.06a2.92,2.92,0,0,0-.16-.71l0-.1c-.07-.18-.13-.36-.19-.54l-.09-.35a.82.82,0,0,1,0-.26,1.26,1.26,0,0,1,.24-.71,3.11,3.11,0,0,0,.69-.09l.28-.07-.15-.21c-.22-.3-.31-.49-.3-.56h0c0-.08,0-.2-.2-.36s-.06-.51.14-.6h0c.22-.08.44-.18.65-.28a34,34,0,0,1,1.38-7.36q1-3.33,2.34-6.55t2.55-6.39a46.14,46.14,0,0,0,1.63-5.12c.15-.61.3-1.22.43-1.83a6.85,6.85,0,0,0,1.41-2.11c.36-.81.74-1.62,1.14-2.42a24.59,24.59,0,0,1,1.37-2.39,5.51,5.51,0,0,1,1.61-1.58,5.74,5.74,0,0,1,.53-.32,4.85,4.85,0,0,1,1.31.27,3.94,3.94,0,0,1,.72.34,3.18,3.18,0,0,0,1.08.39,4.37,4.37,0,0,0,1.1.05c.16.27.31.54.44.81a4.27,4.27,0,0,0,.3.51Zm-66.52,1.6,0-.22-.28-.13a13.32,13.32,0,0,1-2.51-1.45,7.75,7.75,0,0,1-2.06-2.31c.05.45-.05.61-.3.49l-.06,0h0c-.25-.16-.47-.08-.66.25a1.74,1.74,0,0,0-.1.19,1.3,1.3,0,0,1-.55-.12,2.79,2.79,0,0,1-.43-.25c-.14-.11-.27-.23-.4-.35-1.27.24-2.47.45-3.59.62-.82.13-1.65.25-2.47.35l-1.32.16c-1.28.16-2.55.34-3.82.52q-2.52.38-5,.93l-.73.17c-.74.18-1.53.39-2.35.62s-1.81.54-2.7.83l-1.74.39-1.66.34-1.18.26c-.61.16-1.21.34-1.81.55a11.6,11.6,0,0,0-2.55,1.25,6.92,6.92,0,0,0-2,2,17,17,0,0,1,.57,2.71c.1.87.24,1.73.4,2.59,0,.1,0,.21.07.31a13.09,13.09,0,0,0,.7,2.2,6.58,6.58,0,0,0,.59,1.07A7.38,7.38,0,0,0,356,37c-.16.43-.33.86-.5,1.29s-.44,1-.67,1.5c-.4.82-.81,1.65-1.22,2.46s-.8,1.67-1.17,2.51l-.28.66c-.28.69-.54,1.39-.77,2.09h0a.66.66,0,0,0-.52.09.39.39,0,0,0-.12.19.56.56,0,0,1-.27.38.86.86,0,0,1-.21.07v0a2.41,2.41,0,0,1-.53,2.07,5.13,5.13,0,0,0-1,2.18,8.54,8.54,0,0,0-.12,2.51q.12,1.41.36,2.79l.12.7c.12.67.24,1.34.37,2v.08c.08.41.14.8.19,1.17s.09.73.12,1.09a2.87,2.87,0,0,1,.48.28,1.61,1.61,0,0,1,.61.9,2.7,2.7,0,0,0,.85,1.33,7.44,7.44,0,0,0,1.82,1.34,9.58,9.58,0,0,0,2.15.8l.61.15a24.06,24.06,0,0,0,4.48.54,34,34,0,0,0,5.26-.24l1.17-.16q1.84-.25,3.27-.57a3.52,3.52,0,0,1,.56,0,2.84,2.84,0,0,1,.57.16.92.92,0,0,0,.27.08,1.93,1.93,0,0,0,.64,0c.1,0,.21,0,.31-.06l2.86-.52c.86-.16,1.73-.3,2.6-.45.64-.1,1.29-.23,1.93-.38a22.58,22.58,0,0,0,2.55-.75,10.76,10.76,0,0,0,3.6-2.14A9.91,9.91,0,0,0,388.22,61a16.67,16.67,0,0,0,1-1.82h-.09a.62.62,0,0,1-.6-.22,1.62,1.62,0,0,1-.17-.32,2.15,2.15,0,0,1-.11-.36c0-.09,0-.18,0-.26l-.15-.59a1.67,1.67,0,0,0-.45-.77h-.35a1.47,1.47,0,0,1-.86-.33l-.24-.22a9.28,9.28,0,0,1-.69-.71l-.45-.55-.48-.59a2,2,0,0,0-.24-.26,2.43,2.43,0,0,0-.89-.59,19.68,19.68,0,0,1-4.08.93,12.62,12.62,0,0,0-1.83.37,9.27,9.27,0,0,0-2,.81l-.72,0c-1,0-1.83,0-2.59,0-.32,0-.65.05-1,.09l-3.32.4-1,.12c-.8.07-1.6.13-2.4.17h-.08a21.16,21.16,0,0,1-2.86-.12c-.55-.06-1.09-.13-1.63-.21v0a30.79,30.79,0,0,1,1.85-4.1A27.6,27.6,0,0,1,364,48.24a4.9,4.9,0,0,0,.92.21,6.83,6.83,0,0,0,1,.08h.5a5.12,5.12,0,0,1,1,.08,3.53,3.53,0,0,1,.94.29l.17-.1a2.71,2.71,0,0,1,1.33-.18l.32,0a3.65,3.65,0,0,0,1.29,0,2,2,0,0,0,.53-.22l.1.07a1.15,1.15,0,0,0,.29.15l.13,0h.61l.59,0a11,11,0,0,0,1.16-.06,9.67,9.67,0,0,0,1.77-.32,16.27,16.27,0,0,0,3-1.17,22.08,22.08,0,0,0,2.71-1.66c.85-.62,1.72-1.22,2.59-1.82a3.23,3.23,0,0,0,.23-1.15,3,3,0,0,0,0-.43,4.66,4.66,0,0,0-.45-1.41,3.57,3.57,0,0,1-.46,0,2,2,0,0,1-.95-.3,3.52,3.52,0,0,1-.45-.3,5.42,5.42,0,0,1-.72-.63q-.58-.57-1.14-1.17c-.15-.17-.32-.33-.49-.49a6.32,6.32,0,0,0-.64-.52c-.05-.21,0-.36.08-.44s.13-.22.1-.43a.36.36,0,0,0,0-.1c-2.21.06-4.46.19-6.75.41a39,39,0,0,1-4.22.18c-.68,0-1.36,0-2-.1l-.08-.17a2.79,2.79,0,0,1-.13-1.09,3.1,3.1,0,0,0-.28-1.49c.48-.16,1-.31,1.46-.45l.24-.08a2.59,2.59,0,0,0,1-.6l.45,0a5.49,5.49,0,0,0,1.46-.09,2.11,2.11,0,0,0,.55-.19,2.18,2.18,0,0,1,.9-.2,2.92,2.92,0,0,1,.5,0,4.91,4.91,0,0,1,.51.15,16.72,16.72,0,0,1,1.67-.9,15,15,0,0,1,3.7-1.2c1.77-.32,3.53-.63,5.3-.93l.64-.12a19.14,19.14,0,0,0,4.17-1.34,7.7,7.7,0,0,0,2.6-2A12.15,12.15,0,0,0,393,24.38c0-.06,0-.13-.05-.19a3,3,0,0,1-.11-.65,1.48,1.48,0,0,1,0-.21,1.73,1.73,0,0,1,0-.32c0-.08,0-.17,0-.25s0-.18,0-.28A2.62,2.62,0,0,0,392.93,21.86Zm14.61,30.58a1.47,1.47,0,0,0-1,.7l-.07.15c-.22.47-.43.94-.61,1.42-.09.23-.19.46-.28.7s-.19.42-.29.63a1.14,1.14,0,0,1-.18.3.85.85,0,0,1-.67.31,2.67,2.67,0,0,1-.22.78c-.07.12-.14.24-.22.35a11.26,11.26,0,0,0-.69,1,4.18,4.18,0,0,0-.48,1.13,2.22,2.22,0,0,0,.16,1.42,2,2,0,0,0-.74,1.09,2.86,2.86,0,0,0-.07.28q-.12.65-.27,1.29l-.09.41a3.48,3.48,0,0,1-.32.83,2.94,2.94,0,0,1-.37.55,1.18,1.18,0,0,1-.49.33,2.79,2.79,0,0,1-1.19.16h-.1l-.06.08c-.11.17-.11.28,0,.33a.18.18,0,0,1,.08.07,1.23,1.23,0,0,1,.15.43v.06l-.27,0a1.86,1.86,0,0,0-.95.1l-.11.06a2.7,2.7,0,0,1-1.09.37,5.36,5.36,0,0,1-2.55-1.7,14.26,14.26,0,0,1-1.78-2.71q-.76-1.49-1.38-3c-.16-.43-.34-.85-.52-1.27s-.33-.74-.49-1.08c-.05-.1-.1-.21-.16-.32a4.11,4.11,0,0,0,.15-.92,3.73,3.73,0,0,0-.07-.82,4.39,4.39,0,0,0-.18-.69,3.07,3.07,0,0,0-.38-.72q2.06-4.36,4.14-8.7,2.24-4.64,4.51-9.26,4.69-9.54,8.89-18.84A39.34,39.34,0,0,1,411,19.33a19.13,19.13,0,0,1,3.12,2l.2.16a12.74,12.74,0,0,1,2.55,2.79,8.93,8.93,0,0,1,1.37,3.52.5.5,0,0,1,0,.13c-.09.23-.2.3-.31.23l-.06,0a.23.23,0,0,0-.26.08l0,.07a1.83,1.83,0,0,1,.13.16,1.34,1.34,0,0,1,.24.4,1,1,0,0,1,0,.16,1,1,0,0,1,0,.17,1.33,1.33,0,0,0,0,.39v.05a1.87,1.87,0,0,0,.24.77.64.64,0,0,0-.3,0,.31.31,0,0,0-.15.1.14.14,0,0,1-.11.07.67.67,0,0,1-.41-.07,2.89,2.89,0,0,1,.22,1.36s0,.06,0,.09a3.28,3.28,0,0,1-.19.63c0,.13-.11.26-.17.39a4.71,4.71,0,0,0-.41,1,1.36,1.36,0,0,0-.06.29,2.67,2.67,0,0,0,.1.89s0,.1,0,.15h-.13a.49.49,0,0,0-.23.11l-.12.14-.08.1a1.71,1.71,0,0,1-.11.14l-.1.11a.32.32,0,0,1-.33.05h0a19.74,19.74,0,0,1,.18,2.67c0,.29,0,.59,0,.88q-.08,1.78-.12,3.6c0,1.17,0,2.38,0,3.64v.16a22.21,22.21,0,0,0,.57,4.09,14,14,0,0,0,3.95-3.4c.25-.31.48-.64.7-1A25.41,25.41,0,0,0,423.08,42c.18-.47.35-.95.51-1.42a41.22,41.22,0,0,0,1.34-5.25c.12-.62.22-1.24.31-1.87q.57-3.79,1.22-7.76a5.16,5.16,0,0,0,1.13-1.78c.27-.7.51-1.44.73-2.22l.64-2.35a12.41,12.41,0,0,1,.5-1.45c.1-.23.2-.47.31-.69a4.44,4.44,0,0,1,2.06.77,13.07,13.07,0,0,1,1.58,1.29A17.24,17.24,0,0,0,435,20.54a3.71,3.71,0,0,0,1.1.57,5.8,5.8,0,0,0,.92.2c.46.65.9,1.31,1.34,2l.44.69a7.38,7.38,0,0,1,1.05,2.75,4.84,4.84,0,0,0-.52,1.16l-.09.3c-.13.54-.28,1.08-.44,1.61a6.73,6.73,0,0,1-.65,1.5,3.39,3.39,0,0,1-.87,1,2.48,2.48,0,0,1-.26.19q-.12,1-.27,2c-.1.61-.21,1.23-.34,1.83l-.72,3.44c-.24,1.13-.44,2.26-.6,3.4v.12c-.08.59-.13,1.18-.16,1.78,0,.37,0,.76,0,1.15s0,.71,0,1.07c-.23.64-.45,1.28-.67,1.92l-.71,2c-.2.58-.39,1.17-.57,1.76s-.31,1.06-.44,1.56l-.12.48a7.52,7.52,0,0,0-2,2.51c-.49,1-1,1.94-1.54,2.91-.2.21-.34.26-.4.17h0a.3.3,0,0,0-.08-.08,1.1,1.1,0,0,0-.42-.15h-.07a.72.72,0,0,1,0,.46v0a1,1,0,0,1-.2.28h0a.3.3,0,0,0-.09.13.69.69,0,0,0-.07.23.22.22,0,0,0,0,.08,1.53,1.53,0,0,0,.13.56h0a6.34,6.34,0,0,0-2,1.37,16.26,16.26,0,0,1-1.9,1.62,5.81,5.81,0,0,1-2.43,1,2.94,2.94,0,0,1-.51,0,8.75,8.75,0,0,1-3.17-.62A30.68,30.68,0,0,1,411.7,60a24.56,24.56,0,0,1-2.94-4.66A28.9,28.9,0,0,1,407.54,52.44Zm126.7,0a1.45,1.45,0,0,0-1,.7l-.08.15c-.21.47-.42.94-.6,1.42-.09.23-.19.46-.29.7s-.18.42-.28.63a1.49,1.49,0,0,1-.18.3.85.85,0,0,1-.67.31,2.41,2.41,0,0,1-.23.78,2.5,2.5,0,0,1-.21.35,11.26,11.26,0,0,0-.69,1,3.89,3.89,0,0,0-.48,1.13,2.22,2.22,0,0,0,.16,1.42,2,2,0,0,0-.75,1.09l-.06.28q-.12.65-.27,1.29c0,.14-.06.27-.1.41a3.45,3.45,0,0,1-.31.83,3.53,3.53,0,0,1-.37.55,1.25,1.25,0,0,1-.49.33,2.81,2.81,0,0,1-1.19.16h-.1l-.06.08c-.11.17-.12.28,0,.33a.18.18,0,0,1,.08.07,1.23,1.23,0,0,1,.15.43v.06l-.27,0a1.86,1.86,0,0,0-1,.1l-.11.06a2.75,2.75,0,0,1-1.1.37,5.38,5.38,0,0,1-2.54-1.7,14.26,14.26,0,0,1-1.78-2.71q-.76-1.49-1.38-3c-.16-.43-.34-.85-.52-1.27s-.33-.74-.49-1.08c-.05-.1-.11-.21-.16-.32a4.1,4.1,0,0,0,.14-.92,3.73,3.73,0,0,0-.06-.82,4.43,4.43,0,0,0-.19-.69,3,3,0,0,0-.37-.72c1.36-2.91,2.75-5.81,4.14-8.7q2.24-4.64,4.51-9.26Q529.79,27,534,17.67c1.26.49,2.48,1,3.68,1.66a19.56,19.56,0,0,1,3.12,2,1.56,1.56,0,0,0,.2.16,12.69,12.69,0,0,1,2.54,2.79,8.8,8.8,0,0,1,1.38,3.52s0,.09,0,.13c-.1.23-.2.3-.32.23l0,0a.23.23,0,0,0-.26.08l0,.07.13.16a1.49,1.49,0,0,1,.23.4.47.47,0,0,1,0,.16.5.5,0,0,1,0,.17,2.77,2.77,0,0,0,0,.39v.05a1.77,1.77,0,0,0,.25.77.64.64,0,0,0-.3,0,.31.31,0,0,0-.15.1.19.19,0,0,1-.11.07.67.67,0,0,1-.41-.07,3,3,0,0,1,.22,1.36s0,.06,0,.09a4.19,4.19,0,0,1-.19.63,3.39,3.39,0,0,1-.18.39,5.32,5.32,0,0,0-.4,1,1.36,1.36,0,0,0-.06.29,2.67,2.67,0,0,0,.1.89s0,.1,0,.15h-.14a.46.46,0,0,0-.22.11.86.86,0,0,0-.13.14l-.07.1a1.71,1.71,0,0,1-.11.14l-.1.11a.32.32,0,0,1-.33.05h0a19.74,19.74,0,0,1,.18,2.67c0,.29,0,.59,0,.88q-.08,1.78-.12,3.6c0,1.17,0,2.38,0,3.64v.16a21.39,21.39,0,0,0,.57,4.09,14,14,0,0,0,3.95-3.4c.25-.31.48-.64.7-1A25.41,25.41,0,0,0,549.79,42c.18-.47.35-.95.51-1.42a43,43,0,0,0,1.34-5.25c.11-.62.22-1.24.31-1.87.38-2.53.78-5.12,1.22-7.76a5.16,5.16,0,0,0,1.13-1.78c.27-.7.51-1.44.73-2.22l.64-2.35a12.41,12.41,0,0,1,.5-1.45c.09-.23.2-.47.31-.69a4.44,4.44,0,0,1,2.06.77,13.9,13.9,0,0,1,1.58,1.29,17.24,17.24,0,0,0,1.54,1.29,3.71,3.71,0,0,0,1.1.57,5.8,5.8,0,0,0,.92.2c.46.65.9,1.31,1.34,2,.14.23.29.46.44.69a7.55,7.55,0,0,1,1,2.75,4.87,4.87,0,0,0-.53,1.16c0,.1-.05.19-.08.3-.13.54-.28,1.08-.44,1.61a7.23,7.23,0,0,1-.65,1.5,3.55,3.55,0,0,1-.87,1,2.48,2.48,0,0,1-.26.19c-.08.67-.17,1.34-.28,2s-.2,1.23-.33,1.83c-.24,1.15-.48,2.29-.73,3.44s-.43,2.26-.59,3.4v.12c-.08.59-.13,1.18-.16,1.78,0,.37,0,.76,0,1.15s0,.71,0,1.07c-.23.64-.45,1.28-.67,1.92l-.71,2c-.2.58-.39,1.17-.57,1.76s-.31,1.06-.44,1.56l-.12.48a7.52,7.52,0,0,0-2,2.51c-.49,1-1,1.94-1.54,2.91-.21.21-.34.26-.4.17h0a.3.3,0,0,0-.08-.08,1.17,1.17,0,0,0-.42-.15h-.07a.8.8,0,0,1,0,.46v0a1,1,0,0,1-.2.28h0a.3.3,0,0,0-.09.13.52.52,0,0,0-.07.23.22.22,0,0,0,0,.08,1.35,1.35,0,0,0,.13.56h0a6.34,6.34,0,0,0-2,1.37,16.26,16.26,0,0,1-1.9,1.62,5.86,5.86,0,0,1-2.43,1,2.94,2.94,0,0,1-.51,0,8.71,8.71,0,0,1-3.17-.62A30.68,30.68,0,0,1,538.41,60a24.56,24.56,0,0,1-2.94-4.66A29,29,0,0,1,534.24,52.44ZM590.12,46l-.89-.25a15.9,15.9,0,0,0-2.08-1c-.46-.18-.92-.35-1.4-.49s-1.06-.35-1.59-.56-.92-.38-1.32-.58l-.4-.2a2.06,2.06,0,0,1-.48.21,1.84,1.84,0,0,1-1.18,0c-.34-.1-.75-.21-1.23-.32l-.75-.16c-1.56-.09-3.11-.25-4.66-.47l-.64-.1a19.27,19.27,0,0,1-4.89-1.45,3.41,3.41,0,0,0-.31-.6l-.09-.13a.51.51,0,0,0-.31-.19,1,1,0,0,0-.49,0l-.09,0-1-1.26a9,9,0,0,1-.79-1.15,1.62,1.62,0,0,1-.1-.18c0-.23.07-.46.11-.69s.06-.43.09-.63,0-.22,0-.34a.91.91,0,0,0,0-.17,1.76,1.76,0,0,0-.5-1.16c.06-.17.11-.33.16-.5q.21-.72.33-1.2a4.14,4.14,0,0,0,0-1.55c0-.05,0-.1,0-.15a7.11,7.11,0,0,1,1.82-2.91,13.53,13.53,0,0,1,2.75-2.06,19.41,19.41,0,0,1,3.11-1.42c1.08-.37,2.1-.7,3.07-1,1.61-.69,3.24-1.32,4.88-1.92l2-.71q3.71-1.27,7.52-2.23a44.6,44.6,0,0,1,7.88-1.25,23.08,23.08,0,0,1,6.24.45c.76.16,1.51.34,2.25.56a5.88,5.88,0,0,0,.73,1.54c.33.49.66,1,1,1.45.21.29.41.59.61.9s.22.34.32.52a3.53,3.53,0,0,1,.49,1.41,6.54,6.54,0,0,1,1.29,1.58,3,3,0,0,1,.16,2.22c-.36.29-.72.57-1.09.83l-.49.35a11.05,11.05,0,0,1-1.65.92,19.3,19.3,0,0,0-4.54-.54q-.76,0-1.53.06l-2.74.21-2.76.19a2.46,2.46,0,0,0-.93-.59,2.22,2.22,0,0,0-.81-.13,7.25,7.25,0,0,0-2.1.32l-2.18.65a5.06,5.06,0,0,1-1.4.21,4.89,4.89,0,0,1-.66-.05,4.06,4.06,0,0,1-1.32.69,5.28,5.28,0,0,1-.66.16c-.79.13-1.63.25-2.55.36a.28.28,0,0,0,0,.09.59.59,0,0,0,0,.23.36.36,0,0,0,.17.21c.16.08.19.25.08.52h0a2.58,2.58,0,0,0,1.09.75l.16.06q.6.2,1.2.36l.42.13a6.55,6.55,0,0,1,.85.29,5.51,5.51,0,0,1,.65.31,1.81,1.81,0,0,1,.77.87,1.66,1.66,0,0,1,.12.31,3.79,3.79,0,0,1,2.1.56,4.91,4.91,0,0,1,1.21,1.06,3.92,3.92,0,0,1,.25.32,6.16,6.16,0,0,1,.84,1.73,6,6,0,0,1,.19.73,5.27,5.27,0,0,1,.1.93,1,1,0,0,0,.09.21c.12.25.25.37.4.37h.07l.11,0a.88.88,0,0,1,.58.3l0,0a3.71,3.71,0,0,0,.39,1,6.18,6.18,0,0,0,.55.82l.27.32a8.89,8.89,0,0,1,1.54,2.39c.09,1.16.17,2.21.22,3.15,0,.15,0,.3,0,.45s0,.23,0,.35a7.65,7.65,0,0,1-.57,2.84A17.6,17.6,0,0,1,595,58.59a26.62,26.62,0,0,1-4.85,4.16,34.16,34.16,0,0,1-5.78,3.12c-1.49.62-3,1.19-4.52,1.71l-1.47.47a1.3,1.3,0,0,0-.64,0h0c-.18,0-.23-.11-.12-.42a3.11,3.11,0,0,1-.82.53,2.49,2.49,0,0,1-.6.2,6.34,6.34,0,0,1-1.66.12c-.59,0-1.2-.06-1.82-.12l-.6,0a5.65,5.65,0,0,0-.93.07l-.2,0c-.21-.2-.41-.41-.6-.62l-.42-.47a3.33,3.33,0,0,1-.43-.67,4.44,4.44,0,0,1-.25-.66l-.15,0c-.16,0-.24-.17-.22-.39a.07.07,0,0,0,0-.05c0-.23-.09-.35-.29-.35l.11-.18a2.24,2.24,0,0,0,.34-.75h0a.7.7,0,0,0-.06-.09.49.49,0,0,0-.16-.1h0a1.62,1.62,0,0,1-.36-.21.28.28,0,0,1-.08-.36,2.4,2.4,0,0,0,.24-.87,3,3,0,0,0,0-.6v0c-.05-.58-.11-1.16-.16-1.74a5,5,0,0,1,.12-1.7,2,2,0,0,1,1.17-1.3,15.72,15.72,0,0,0,2.06.13,15.27,15.27,0,0,0,3.16-.33,23.71,23.71,0,0,0,4.58-1.46l.07,0a46.27,46.27,0,0,0,4.16-2.1c1.12-.65,2.27-1.25,3.44-1.8l.48-.23a3.47,3.47,0,0,1,.31-.68,2.85,2.85,0,0,1,.38-.53,9.78,9.78,0,0,1,.93-.89,7.48,7.48,0,0,0,.89-.89,2.74,2.74,0,0,0,.41-.7,3.33,3.33,0,0,0,.16-.51.75.75,0,0,0-.1-.57.39.39,0,0,0-.19-.12.54.54,0,0,1-.36-.55ZM283.5,24.22v1a7.41,7.41,0,0,1,1.57,2.07,20.38,20.38,0,0,1,1,2.13l.13.37,1,2.67A18.14,18.14,0,0,0,288.27,35a2.55,2.55,0,0,0-.15.49,1.21,1.21,0,0,0,0,.19,1.84,1.84,0,0,0,0,.33,1.52,1.52,0,0,0,.09.28c.08.21.14.43.2.65l0,.16a2.94,2.94,0,0,1,0,.65v.08a8.93,8.93,0,0,1-2.31,5.74,16.54,16.54,0,0,1-4.25,3.23l-.72.37a39.81,39.81,0,0,1-5.61,2.2l-.61.18a53.73,53.73,0,0,0-6,2.11s0,.08,0,.12a.24.24,0,0,0,.2.19h.17c.11.05.15.18.11.39l3.07,1.94a20.33,20.33,0,0,0,2.14,1.22,15.1,15.1,0,0,0,1.61.66c.19.06.38.13.58.18l.64.19c.7.2,1.58.42,2.63.66l1,.23,1.68.4.61.14c.78.19,1.49.35,2.14.49s1.31.24,2,.32l.56.06,1.48.15.83.07a7,7,0,0,1,1.25,1.74,7,7,0,0,1,.53,1.3,6.2,6.2,0,0,1,.16.72,8.6,8.6,0,0,1,.11,1.32q0,.31,0,.63a2.64,2.64,0,0,1-.51,1.43l-.06.06a.31.31,0,0,0,.34.21h0a1.84,1.84,0,0,1,.61,0,2.84,2.84,0,0,0-.81.81l-.65,1a4.39,4.39,0,0,1-.58.71l-.15.14a2,2,0,0,1-1.13.45,7.48,7.48,0,0,1-1.81.44,13.11,13.11,0,0,1-4.39-.3l-.11,0a70.49,70.49,0,0,1-9.62-3.12q-2.91-1.12-4.73-2c-.54-.25-1.07-.51-1.6-.79s-1-.53-1.37-.79l-.18-.11a20.24,20.24,0,0,1-2.43-1.82l-1.71-1.53-.92-.82c-.14.51-.28,1-.43,1.52-.32,1.09-.62,2-.9,2.74-.07.21-.16.42-.24.63a14.11,14.11,0,0,1-.86,1.69A19.07,19.07,0,0,1,257,67.08a2.08,2.08,0,0,0-1.21.08.78.78,0,0,0-.24.16,5.67,5.67,0,0,1-.89.73,1.65,1.65,0,0,1-1,0,3.35,3.35,0,0,1-.36-.21l-.21-.15a1.3,1.3,0,0,0-.23-.18l-.27-.17-.1-.06a1,1,0,0,0-.29-.11,3.07,3.07,0,0,0-.81-.09c-.07-.29-.15-.57-.24-.85l-.12-.36c-.13-.37-.48-.51-1-.42h0a2.55,2.55,0,0,0,.09-1,.31.31,0,0,0,0-.1c0-.16-.06-.32-.1-.47s-.07-.23-.1-.34a6.05,6.05,0,0,1-.2-.73.47.47,0,0,1,0-.17,2.15,2.15,0,0,1,.06-.59l.05-.17a.53.53,0,0,1-.4-.17,1.05,1.05,0,0,1-.25-.39,10.48,10.48,0,0,0-.53-1.06l0-.07c.08-.48.16-1,.25-1.42s.16-.89.24-1.33.24-1.14.39-1.71l.21-.72a22.17,22.17,0,0,0,.61-2.26,3.3,3.3,0,0,0,.08-.77,4,4,0,0,0-.16-1.12c-.05-.16-.1-.31-.16-.46l.07,0a.25.25,0,0,0,.38-.1l0-.07a1.45,1.45,0,0,0,.11-.29,4.75,4.75,0,0,0,.14-.68,9.83,9.83,0,0,0,.08-1.21c0-.14,0-.28,0-.42a3.39,3.39,0,0,0,0-.35l0-.24a34.36,34.36,0,0,0,1.33-4.33c.35-1.48.67-3,1-4.41s.6-2.86.93-4.28a21.59,21.59,0,0,1,.82-2.74c.15-.39.3-.77.47-1.14a3.46,3.46,0,0,1,1.32,0c.23.05.45.11.67.18a4.94,4.94,0,0,1,.49.19,1.61,1.61,0,0,1,.84.74,18.06,18.06,0,0,0,3.72-3.92q1.62-2.31,3.31-4.49a24.72,24.72,0,0,1,3.76-3.88,8.77,8.77,0,0,1,3.18-1.64,10.94,10.94,0,0,1,2-.38c.67.5,1.35,1,2.05,1.45.51.35,1,.68,1.55,1a10.55,10.55,0,0,1,3.27,3.28,6,6,0,0,1,1.09.68c.14.12.29.23.43.33s.31.22.49.33ZM122.83,60l-.16.33a11.92,11.92,0,0,1-.77,1.71c-.2.37-.42.73-.65,1.08a12.1,12.1,0,0,1-5,4.32,8.33,8.33,0,0,1-3.24.81,5.16,5.16,0,0,1-1.17-.38,1.38,1.38,0,0,1-.24-.14,7,7,0,0,0-.77-.53l-.44-.28-.32-.18,0,0-1-.41.32-1a1.42,1.42,0,0,0,0-.22,1.06,1.06,0,0,0-.13-.79,1.66,1.66,0,0,0-.16-.21,5.52,5.52,0,0,0-.49-.51l-.32-.29-.48-.49a2.16,2.16,0,0,1-.25-.27l-.16-.21-1.37-1.54,2.18-.56c.33-.1.66-.2,1-.33a4.44,4.44,0,0,0,1.48-.86,2.16,2.16,0,0,0,.25-.27,2.38,2.38,0,0,0,.35-.67,5.74,5.74,0,0,0,.2-2c0-.11,0-.23,0-.34-.26,0-.52-.1-.78-.13a6.34,6.34,0,0,0-1.5,0,3,3,0,0,0-.43.07c-.75.16-1.49.35-2.23.56-1,.27-1.95.5-2.95.69a14.71,14.71,0,0,1-1.87.24c-.47,0-.94,0-1.4,0h-.78l-.43,0c-.38,0-.79-.06-1.22-.12l-.81-.16-.06-.31a1.38,1.38,0,0,0-.26-.7l-.2-.17-.12-.11a6.68,6.68,0,0,1-.85-1.09,1.88,1.88,0,0,1-.28-.79,2.79,2.79,0,0,1,0-.64c0-.1,0-.21,0-.31a4.93,4.93,0,0,1-.35-.82,3.46,3.46,0,0,1-.13-.64,9,9,0,0,0-.73,2l-.32.81-.81.16a.32.32,0,0,0-.12.11.7.7,0,0,0-.12.26.83.83,0,0,0,0,.15,1.29,1.29,0,0,0,0,.25v0l-.41,1.38-.2.18-.12.1-.2.17-.12.11c-.11.49-.25,1-.41,1.46l-.33,1-.15.41c-.23.59-.43,1.18-.61,1.78,0,.09,0,.19-.08.28a5.47,5.47,0,0,0-.2,2l-.33.89a3.59,3.59,0,0,1-.52.51,3,3,0,0,1-.37.25c-.31.19-.64.36-1,.53a1.25,1.25,0,0,1-.36.24.2.2,0,0,1-.08,0l-.14.06-.31.14-.24.89-1,.16-.41.08-.78.15-.06,0a4.23,4.23,0,0,1-.85.08l-.81-.08-.42-.35c-.3-.25-.56-.47-.77-.66l-.18-.16a6.66,6.66,0,0,0-.66-.53,5.72,5.72,0,0,0-.48-.32l-.3-.43a3.07,3.07,0,0,1-.51-1c0-.15-.05-.31-.08-.46s0-.29-.08-.43-.12-.4-.16-.57,0-.16,0-.24a1.29,1.29,0,0,0,0-.19.75.75,0,0,0-.07-.18l-.09-.11-1-1,.89-.73.08-1.37c1.08-2.75,2.22-5.4,3.43-7.93s2.5-5.18,3.76-7.76c.43-.86.85-1.72,1.26-2.59s.82-1.73,1.25-2.59a1.62,1.62,0,0,1-.08-.52v0a1.53,1.53,0,0,1,0-.3,1.71,1.71,0,0,1,.09-.3c0-.05,0-.09,0-.13.21-.33.42-.66.62-1s.42-.71.6-1l.24-.44c.38-.74.76-1.48,1.13-2.22.42-.9.87-1.79,1.33-2.67.28-.51.57-1,.89-1.48s.56-.8.85-1.19l1.3-.56.19-.07.18-.06.19-.08a2.16,2.16,0,0,1,.44-.1l.29,0,1.21.16a12.12,12.12,0,0,0,4-2.95c.58-.65,1.13-1.32,1.66-2s1.05-1.42,1.58-2.2c.08-.12.16-.23.23-.35l.81-1.13,1,.65.32.16a5.05,5.05,0,0,0,.81.28l.75.22.79.23c.7.15,1.39.33,2.07.52l.68.21a5.92,5.92,0,0,1,1.11.46,4.87,4.87,0,0,1,1,.75,9.59,9.59,0,0,1,.57,1.94,9.74,9.74,0,0,0,.24,1.29c.16.92.31,1.83.45,2.75.07.49.12,1,.17,1.46s.08,1.08.11,1.62c.27.91.5,1.82.69,2.7s.36,1.8.52,2.71c.23,1.11.47,2.21.71,3.31,0,.15.07.3.1.45a22.27,22.27,0,0,0,1.05,3.44h.23a1.84,1.84,0,0,1,.58.08,4.13,4.13,0,0,1,.85-.24l.44-.08.57-.08.89-.08.32.8a1.24,1.24,0,0,0,.6.69l.21.12.55.07a2.38,2.38,0,0,1,1,.38,8.34,8.34,0,0,1,.89.77,2.67,2.67,0,0,0,.6.46l0,0,1.22.49-.65,1.21a9.43,9.43,0,0,1-1.13,1.6,13.14,13.14,0,0,1-1.17,1.19,14.2,14.2,0,0,1-3.36,2.22c0,.23.07.46.1.69a1.94,1.94,0,0,0,0,.24,3.39,3.39,0,0,0,.1.57c0,.13.06.24.1.36.16.92.3,1.86.41,2.83a14.68,14.68,0,0,1,.08,1.48C122.91,59,122.88,59.54,122.83,60Zm28.38,5.75-1.86.48c-.79.25-1.57.5-2.37.73l-2.56.73a20.43,20.43,0,0,1-5.34.72,13.1,13.1,0,0,1-2.58-.23,8.8,8.8,0,0,1-2.77-1,7,7,0,0,1-1-.75c-.06-.14-.13-.27-.2-.41a3,3,0,0,0-.53-.8,6.2,6.2,0,0,1-.44-.69,1.36,1.36,0,0,1-.13-.3,3,3,0,0,1-.15-.71,8.42,8.42,0,0,1-1.42-2.33l-.12-.3a13.54,13.54,0,0,1-.77-3.07,16.48,16.48,0,0,1-.12-2c0-.4,0-.8,0-1.2a15.52,15.52,0,0,1,.41-2.62,4.48,4.48,0,0,1,.12-.46,2.61,2.61,0,0,0,.16-.42c0-.07,0-.15,0-.22a3.06,3.06,0,0,1,0-.32c0-.13,0-.27.07-.41.21-.84.44-1.68.69-2.51a7.51,7.51,0,0,1,.5-1.26,6.07,6.07,0,0,1,.51-.84,1.83,1.83,0,0,1-.16-.77,2.45,2.45,0,0,1,.16-.85c.13-.35.27-.7.43-1.05.1-.19.19-.38.3-.56.26-.73.53-1.45.79-2.18.42-1.13.79-2.15,1.11-3,.51-1.42,1-2.84,1.57-4.24.9-2.39,1.77-4.79,2.59-7.2.52-1.54,1-3.1,1.42-4.67.27-1,.53-2,.76-3l.31-.19c.28-.17.5-.3.66-.38l.24-.08.54-.15h0c.49.24,1,.46,1.47.67s1.24.5,1.93.74c.38.14.76.26,1.15.37a10.55,10.55,0,0,0,1.08.23,5.72,5.72,0,0,0,1,.09l.26.17a2.53,2.53,0,0,1,.55.44c.07.08.13.16.2.23l.13.13a18.51,18.51,0,0,1,1.24,1.67c.1.15.2.31.29.47a3.44,3.44,0,0,1,.38,1,5.27,5.27,0,0,1,.07,1.51c0,.12,0,.24,0,.35l-.18.25c-.24.32-.42.48-.55.48a21.78,21.78,0,0,1-.85,2.75c-.3.76-.61,1.52-.93,2.27s-.72,1.6-1,2.42a15.7,15.7,0,0,0-.81,3l-.2.27a2.43,2.43,0,0,0-.15.26l-.1.2c-.08.22-.17.46-.28.73s-.14.35-.22.52-.09.22-.14.33a2,2,0,0,1-.58.74l0,0c0,.45-.12.9-.2,1.35s-.17.81-.27,1.17a6.38,6.38,0,0,1-.3.87c-.35.87-.71,1.73-1.09,2.59-.64,1.54-1.22,3.11-1.74,4.69a18.86,18.86,0,0,0-.64,2.67,23.94,23.94,0,0,0-.29,2.67,2.91,2.91,0,0,1,.39-.12,2.47,2.47,0,0,1,.38,0h.69l.63,0c.2,0,.42.06.65.11l.42.1a13.36,13.36,0,0,1,5.29-1.54q2.88-.24,5.7-.32h2.27c.43,0,.86,0,1.28-.06s.55-.06.82-.1a5.07,5.07,0,0,0,.93.44l.13,0,.48,0h.4l.39,0,.18,0a7.94,7.94,0,0,0,1.52,1.13l.34.17a18.85,18.85,0,0,0,1.86.72c.58.22,1.16.44,1.74.69a7,7,0,0,1,1.14.63c.18.12.35.25.51.38l.57,3.48.17.22c.25.37.36.61.31.75a2.19,2.19,0,0,1,0,.36,1.27,1.27,0,0,1-.11.36,1.14,1.14,0,0,1-.18.25l.16.89-.56.12a5,5,0,0,0-.81.28,2.69,2.69,0,0,0-.29.16,7.2,7.2,0,0,0-.84.73l-.3,0-.47,0h-.69a7.11,7.11,0,0,0-.92.06c-.31,0-.63.09-1,.16s-.57.12-.85.19a14,14,0,0,0-4.53-.73c-.46,0-.92,0-1.38,0l-.48,0-1.94.16c-.65.11-1.32.19-2,.24S151.91,65.79,151.21,65.79ZM508,65.3l.09-.21a6.56,6.56,0,0,0,.19-3.59,33.43,33.43,0,0,1-.57-6.15c0-.57,0-1.13,0-1.69a51.59,51.59,0,0,1,1-7.73,72.43,72.43,0,0,1,2.07-7.64q1.25-3.8,2.7-7.68a1.47,1.47,0,0,1-.68-.53,2.19,2.19,0,0,1-.25-.48c-.07-.21-.14-.43-.19-.65a7.41,7.41,0,0,1-.17-1.05c0-.63-.08-1.26-.08-1.9V24.38a3.47,3.47,0,0,1-.46-.27,2.67,2.67,0,0,1-.91-1.06,7.8,7.8,0,0,1-.61-1.82l-.41-1.94a4.12,4.12,0,0,0-.84-1.78h-.23a6.23,6.23,0,0,0-.9.09,4,4,0,0,0-.94.31l-.31.15a7.43,7.43,0,0,0-1.22.78l0,0A13.84,13.84,0,0,0,504,20a9.25,9.25,0,0,1-1.37,1.13,4.61,4.61,0,0,1-.45,2.63l-.27.55c-.29.57-.53,1-.74,1.35a2.54,2.54,0,0,0-.31,1.12,1.07,1.07,0,0,0,0,.25.77.77,0,0,1,0,.15,3.38,3.38,0,0,1-.14,1.31.65.65,0,0,1-.49.52h0a1,1,0,0,0-.21.08.58.58,0,0,0-.27.36,1.52,1.52,0,0,0-.06.42,1.83,1.83,0,0,0,.05.4,1.63,1.63,0,0,0,.13.39,2.11,2.11,0,0,1,.18.86,2.37,2.37,0,0,1-.06.52,44.39,44.39,0,0,1-1.74,6.39,37.73,37.73,0,0,0-1.66,6.46c0,.21-.05.41-.07.62-.07.64-.11,1.28-.13,1.93,0,.88-.05,1.75-.08,2.63s-.08,1.7-.16,2.55a9.34,9.34,0,0,1-.16,1,7,7,0,0,1-.37,1.18c0,.13.07.26.1.39.09.41.2.83.31,1.28l.36,1.48c.31,1.21.64,2.41,1,3.6s.78,2.39,1.22,3.52l.18.46a13.7,13.7,0,0,0,.6,1.27,9.49,9.49,0,0,0,.67,1.1,14,14,0,0,0,2.28.18l.79,0a6.71,6.71,0,0,0,.89-.09,6.26,6.26,0,0,0,2-.68,4.78,4.78,0,0,0,.94-.68A5.24,5.24,0,0,0,508,65.3ZM105.52,35.06l-.48.81a31.09,31.09,0,0,0-2.36,2.77c-.26.34-.51.68-.76,1a46.71,46.71,0,0,0-2.54,4l-1,1.45c-.32.48-.62,1-.89,1.46a4.62,4.62,0,0,1,.65-.07h.28a5.34,5.34,0,0,0,.69-.05l.16,0c1.61-.11,3.08-.23,4.4-.37.7-.07,1.4-.16,2.09-.27s1.51-.25,2.32-.41c-.29-1.25-.59-2.51-.89-3.75-.11-.44-.22-.87-.32-1.31Q106.26,37.65,105.52,35.06Zm164.67-1.7a15.3,15.3,0,0,0,2-2.34A5.69,5.69,0,0,1,274,32a8.55,8.55,0,0,1,1.13,1,7.18,7.18,0,0,1,1.74,4L274,38.24l-3,1.23c-.75.31-1.53.58-2.31.82a19.92,19.92,0,0,1-3.59.75,9.19,9.19,0,0,1,1.13-3.11,16,16,0,0,1,1.82-2.43C268.77,34.77,269.47,34.05,270.19,33.36Z" transform="translate(0.3 -6.2)"/>
  </g>
</svg>
