<?xml version="1.0" encoding="utf-8"?>
<!-- Generator: Adobe Illustrator 24.1.1, SVG Export Plug-In . SVG Version: 6.00 Build 0)  -->
<svg version="1.1" id="Layer_1" xmlns="http://www.w3.org/2000/svg" xmlns:xlink="http://www.w3.org/1999/xlink" x="0px" y="0px"
	 viewBox="0 0 90 90.2" style="enable-background:new 0 0 90 90.2; fill: #ebf2fa;" xml:space="preserve">
<g>
	<path d="M45.2,1.5c-1.5,0-34.9,0.1-40.6,7.6c-0.6,0.3-1.1,1-1.1,1.8c0,0.5,0.1,0.9,0.3,1.3v14.9c0,9.8,39.7,9.9,41.4,9.9
		s41.4-0.1,41.4-9.9V11.3C86.6,1.6,46.9,1.5,45.2,1.5z M45.2,5.5c21.5,0,34.5,3.3,37,5.5c-1.7,2.2-14.9,5.7-37.3,5.7
		c-21.5,0-34.5-3.3-37-5.5C9.7,9,22.8,5.5,45.2,5.5z M82.6,27c-1,2.2-14.3,5.9-37.4,5.9S8.9,29.2,7.8,27V15.7c10.3,5,35.8,5,37.1,5
		c1.4,0,27.7-0.1,37.6-5.3L82.6,27L82.6,27z"/>
	<path d="M84.6,33.5c-1.1,0-2,0.9-2,1.9c-1,2.2-14.3,6-37.4,6s-36.4-3.8-37.4-6c0-1.1-0.9-1.9-2-1.9s-2,0.9-2,2v17.3
		c0,9.8,39.7,9.9,41.4,9.9s41.4-0.1,41.4-9.9V35.5C86.6,34.4,85.7,33.5,84.6,33.5z M82.6,52.8c-1,2.2-14.3,5.9-37.4,5.9
		S8.9,54.9,7.8,52.8V40.2c10.1,5.1,36,5.2,37.4,5.2s27.3-0.1,37.4-5.2V52.8z"/>
	<path d="M84.6,59.5c-1.1,0-2,0.9-2,1.9c-1,2.2-14.3,5.9-37.4,5.9S8.9,63.6,7.8,61.4c0-1.1-0.9-1.9-2-1.9s-2,0.9-2,2v17.3
		c0,9.8,39.7,9.9,41.4,9.9s41.4-0.1,41.4-9.9V61.5C86.6,60.4,85.7,59.5,84.6,59.5z M82.6,78.8c-1,2.2-14.3,5.9-37.4,5.9
		S8.9,80.9,7.8,78.8V66.2c10.1,5.1,36,5.2,37.4,5.2s27.3-0.1,37.4-5.2V78.8z"/>
</g>
</svg>
