<?xml version="1.0" encoding="utf-8"?>
<!-- Generator: Adobe Illustrator 24.1.1, SVG Export Plug-In . SVG Version: 6.00 Build 0)  -->
<svg version="1.1" id="Layer_1" xmlns="http://www.w3.org/2000/svg" xmlns:xlink="http://www.w3.org/1999/xlink" x="0px" y="0px"
	 viewBox="0 0 32 32" style="enable-background:new 0 0 32 32;" xml:space="preserve">
<style type="text/css">
	.st0{fill:#FFFFFF;}
</style>
<path class="st0" d="M24.9,12.2c0-1.6-0.6-2.9-1.6-3.8c0.2-0.5,0.4-1.8-0.2-3.3c0,0-1.1-0.3-3.6,1.3c-1-0.2-2-0.4-3.1-0.4
	c-1.2,0-2.3,0.1-3.4,0.4C10.4,4.7,9.2,5,9.2,5C8.5,6.9,9,8.2,9.1,8.6c-0.9,0.9-1.4,2.1-1.4,3.6c0,1.1,0.1,2.1,0.4,3l0.3,0.7
	c0.9,1.6,2.6,2.7,5.7,3c-0.4,0.3-0.9,0.8-1.1,1.6c-0.6,0.3-2.5,1-3.6-0.9c0,0-0.6-1.1-1.8-1.2c0,0-1.2,0-0.1,0.7
	c0,0,0.8,0.4,1.3,1.7c0,0,0.7,2.3,4.1,1.6v2.4c0,0-0.1,0.9-0.9,1.1c0,0-0.5,0.3,0,0.5c0,0,2.2,0.2,2.2-1.6v-2.6c0,0-0.1-1,0.4-1.4
	v4.3c0,0,0,1-0.6,1.4c0,0-0.4,0.6,0.4,0.5c0,0,1.5-0.2,1.6-2l0-4.4h0.4l0,4.4c0.1,1.7,1.6,2,1.6,2c0.8,0.2,0.4-0.5,0.4-0.5
	c-0.5-0.4-0.6-1.4-0.6-1.4v-4.3c0.5,0.4,0.4,1.4,0.4,1.4v2.6c0,1.8,2.2,1.6,2.2,1.6c0.5-0.2,0-0.5,0-0.5c-0.8-0.3-0.9-1.1-0.9-1.1
	v-3.5c0-1.3-0.6-2.1-1.1-2.4c3.3-0.3,4.8-1.4,5.6-3c0,0,0.3-0.7,0.3-0.7C24.8,14.3,24.9,13.3,24.9,12.2L24.9,12.2L24.9,12.2z"/>
</svg>
