<?xml version="1.0" encoding="utf-8"?>
<!-- Generator: Adobe Illustrator 24.1.1, SVG Export Plug-In . SVG Version: 6.00 Build 0)  -->
<svg version="1.1" id="Layer_1" xmlns="http://www.w3.org/2000/svg" xmlns:xlink="http://www.w3.org/1999/xlink" x="0px" y="0px"
	 viewBox="0 0 90 90.2" style="enable-background:new 0 0 90 90.2;fill: #ebf2fa;" xml:space="preserve">
<g>
	<path d="M76.2,49.1c-0.3-0.6-0.7-0.9-1.3-0.9h-21c4.9-7.9,10.6-18,10.6-23.8c0-10.7-8.6-19.3-19.3-19.3s-19.3,8.6-19.3,19.3
		c0,5.8,5.5,15.9,10.6,23.8H15.3c-0.6,0-1.2,0.3-1.3,0.9L0.5,80.3c-0.3,0.7,0,1.6,0.7,1.9c0.1,0.1,0.4,0.1,0.6,0.1h86.2
		c0.9,0,1.5-0.6,1.5-1.5c0-0.1,0-0.4-0.1-0.6L76.2,49.1z M64,51.2h9.8l1.5,3.7l-1.9,0.6L71,54.3c-0.3-0.1-0.7-0.1-1-0.1l-5.2,1.3
		L63,53.7L64,51.2z M28.6,24.4c0-9.1,7.3-16.4,16.4-16.4s16.4,7.3,16.4,16.4c0,7.1-10.9,23.9-16.4,31.7
		C39.5,48.4,28.6,31.6,28.6,24.4z M48.7,56c3.3,0.7,5.2,2.2,5.2,3.3c0,1.5-3.4,3.7-8.9,3.7s-8.9-2.2-8.9-3.7c0-1.2,1.9-2.7,5.2-3.3
		c1.3,1.9,2.2,3.3,2.5,3.4c0.4,0.6,1.5,0.7,2.1,0.3c0.1-0.1,0.3-0.1,0.3-0.3C46.5,59.2,47.4,58,48.7,56z M16.3,51.2H26l-1.2,1.6
		L19.7,54l-4.3-1L16.3,51.2z M45.1,76l-1.2,3.4H4.2l10.1-23.6l5.1,1.3c0.3,0,0.4,0,0.7,0l5.9-1.5c0.3-0.1,0.7-0.3,0.9-0.6l2.5-3.9
		h8.6c0.4,0.7,1,1.5,1.5,2.2c-4,1-6.4,3.3-6.4,5.9c0,3.9,5.1,6.7,11.9,6.7S57,63.2,57,59.4c0-2.7-2.5-4.9-6.4-5.9
		c0.4-0.7,0.9-1.5,1.5-2.2H61l-0.9,2.5c-0.1,0.6,0,1.2,0.3,1.5l3,3c0.3,0.3,0.9,0.4,1.5,0.4l5.4-1.3l2.5,1.2
		c0.3,0.1,0.7,0.1,1.2,0.1l2.8-0.9l2.2,5.1l-6.7-1.2c-0.3,0-0.6,0-0.9,0.1l-8.8,4.5l-5.8,1.5c-0.4,0.1-0.7,0.4-1,0.7L53,73.6
		L46.3,75C45.7,75.1,45.3,75.4,45.1,76z M47.1,79.4l0.6-1.6l6.5-1.3c0.4-0.1,0.9-0.4,1-0.7l2.7-5.4l5.4-1.3c0.1,0,0.1,0,0.3-0.1
		l8.5-4.3l8,1.3l5.8,13.5H47.1z"/>
	<path d="M56.9,24.4c0-6.5-5.4-11.9-11.9-11.9s-11.9,5.4-11.9,11.9S38.4,36.3,45,36.3C51.7,36.3,56.9,31,56.9,24.4z M36.1,24.4
		c0-4.9,4-8.9,8.9-8.9s8.9,4,8.9,8.9s-4,8.9-8.9,8.9S36.1,29.3,36.1,24.4z"/>
	<path d="M37.4,68.3c-0.1-0.3-0.3-0.4-0.4-0.6l-4.2-2.8L30,60.7c-0.3-0.4-0.7-0.6-1.2-0.6h-4.5c-0.4,0-0.7,0.1-1,0.4l-2.4,2.4
		l-5.1-1.3c-0.7-0.1-1.6,0.3-1.8,1l0,0l-1.5,5.9c-0.1,0.4,0,0.9,0.1,1.2l3,4.5c0.1,0.3,0.4,0.6,0.9,0.6l5.9,1.5c0.1,0,0.3,0,0.3,0
		h4.5c0.3,0,0.4,0,0.6-0.1l2.4-1.2l3.9,1.3c0.1,0,0.3,0,0.4,0c0.4,0,0.7-0.1,1-0.4l3-3c0.4-0.4,0.6-1.2,0.3-1.8L37.4,68.3z
		 M34.3,73.2L30.7,72c-0.4-0.1-0.7-0.1-1.2,0.1l-2.7,1.3H23l-5.2-1.3l-2.2-3.4l0.9-3.9l4.5,1.2c0.4,0.1,1,0,1.3-0.4l2.5-2.5h3.1
		l2.5,3.9c0.1,0.1,0.3,0.3,0.4,0.4l4.2,2.8l0.9,1.6L34.3,73.2z"/>
</g>
</svg>
