<?xml version="1.0" encoding="utf-8"?>
<!-- Generator: Adobe Illustrator 24.1.1, SVG Export Plug-In . SVG Version: 6.00 Build 0)  -->
<svg version="1.1" id="Layer_1" xmlns="http://www.w3.org/2000/svg" xmlns:xlink="http://www.w3.org/1999/xlink" x="0px" y="0px"
	 viewBox="0 0 90.1 78.3" style="enable-background:new 0 0 90.1 78.3;" xml:space="preserve">
<g>
	<path d="M90.1,24.1c0-2-1.3-3.9-3.6-5.2L55.2,1.7c-4-2.2-10.3-2.2-14.3,0l-0.1,0.1c-1.7,1-2.9,2.2-3.4,3.7
		c-2.4,0.1-4.6,0.7-6.3,1.6L3.6,22.2C1.3,23.4,0,25.3,0,27.3v3.7c0,2,1.3,3.9,3.6,5.2l5.3,2.9L3.6,42C1.3,43.3,0,45.2,0,47.2v3.7
		c0,2,1.3,3.9,3.6,5.2l31.3,17.3c2,1.1,4.6,1.7,7.1,1.7c2.6,0,5.1-0.6,7.1-1.7l27.5-15.2c1.7-1,2.9-2.2,3.4-3.7
		c2.4-0.1,4.6-0.7,6.3-1.6l0.1-0.1c2.3-1.3,3.6-3.1,3.6-5.2v-3.3c0-0.1,0-0.1,0-0.2c0-0.1,0-0.2,0-0.2c0-2-1.3-3.9-3.6-5.2l-6.6-3.6
		c0.1-0.2,0.1-0.3,0.2-0.5c2.4-0.1,4.6-0.7,6.3-1.6l0.1-0.1c2.3-1.3,3.6-3.1,3.6-5.2v-3.3c0-0.1,0-0.1,0-0.2
		C90.1,24.2,90.1,24.1,90.1,24.1z M16.2,50.1l-3.3-8.6l0.1-0.1l15.2,8.4L16.2,50.1z M86.1,43.9c0,0.4-0.4,1-1.5,1.6l-0.1,0.1
		c0,0,0,0,0,0c-1.3,0.7-3.1,1.1-5,1.2c-1.8,0-3.1,1.1-3.2,2.5c0,0.4-0.4,1-1.5,1.6L47.3,66.1c-2.8,1.6-7.6,1.6-10.4,0L5.5,48.8
		C4.4,48.2,4,47.6,4,47.2c0-0.4,0.4-1,1.5-1.6l5.6-3.1l3.4,9c0.1,0.4,0.5,0.6,0.9,0.6c0,0,0,0,0,0l2.4-0.1c0,0,0,0,0.1,0
		c12.2,6.7,19.9,10.8,22.8,12.3c0.8,0.4,1.7,0.6,2.5,0.6c0.9,0,1.9-0.2,2.7-0.7l16.2-9c0.5-0.3,0.7-0.9,0.4-1.4
		c-0.3-0.5-0.9-0.7-1.4-0.4l-16.2,9c-1,0.6-2.3,0.6-3.3,0.1c-2.6-1.4-9.5-5-19.8-10.7l2.1-0.1c0.4,0.2,2.9,1.6,6.1,3.4
		c0.2,0.1,0.3,0.1,0.5,0.1c0.4,0,0.7-0.2,0.9-0.5c0.3-0.5,0.1-1.1-0.4-1.4c-1.1-0.6-2.2-1.2-3.1-1.7l3.7-0.1l3.3,1.8
		c2,1.1,4.6,1.7,7.1,1.7c2.6,0,5.1-0.6,7.1-1.7l4.7-2.6l4.3,0.7L45,59.1c-1,0.6-2.3,0.6-3.3,0.1c-1.6-0.8-3.7-1.9-5.7-3
		c-0.5-0.3-1.1-0.1-1.4,0.4c-0.3,0.5-0.1,1.1,0.4,1.4c2.1,1.1,4.1,2.2,5.8,3c0.8,0.4,1.7,0.6,2.5,0.6c0.9,0,1.9-0.2,2.7-0.7
		l15.4-8.7l5,0.8c0.1,0,0.1,0,0.2,0c0.5,0,0.9-0.3,1-0.8l0.9-3.8c0,0,0.1,0,0.1,0l7.7-4.3c0.7-0.4,1.2-1.2,1.2-2
		c0-0.8-0.4-1.6-1.1-2.1l-1.1-0.7l1.7-0.9c0.1-0.1,0.2-0.1,0.3-0.2l7.5,4.1C85.7,42.9,86.1,43.5,86.1,43.9z M69.7,42.2l3.4-1.8
		l2,1.3c0.2,0.1,0.2,0.2,0.2,0.3c0,0.1,0,0.2-0.2,0.3l-6.2,3.5L69.7,42.2z M65.7,50.8l-8.9-1.4l10.6-5.8L65.7,50.8z M84.6,25.7
		l-0.1,0.1c0,0,0,0,0,0c-1.3,0.7-3.1,1.1-5,1.2c-1.8,0-3.1,1.1-3.2,2.5c0,0.4-0.4,1-1.5,1.6L47.3,46.2c-2.8,1.6-7.6,1.6-10.4,0
		L5.5,29C4.4,28.4,4,27.7,4,27.3c0-0.4,0.4-1,1.5-1.6l27.5-15.2c1.3-0.7,3.1-1.1,5-1.2c1.8,0,3.1-1.1,3.2-2.5c0-0.4,0.4-1,1.5-1.6
		l0.1-0.1C44.2,4.4,46.1,4,48,4c1.9,0,3.8,0.4,5.2,1.2l31.3,17.3c1.1,0.6,1.5,1.3,1.5,1.6C86.1,24.4,85.7,25.1,84.6,25.7z"/>
	<path d="M75.8,45.4l-6.7,3.7c-0.5,0.3-0.7,0.9-0.4,1.4c0.2,0.3,0.5,0.5,0.9,0.5c0.2,0,0.3,0,0.5-0.1l6.7-3.7
		c0.5-0.3,0.7-0.9,0.4-1.4C76.9,45.3,76.3,45.2,75.8,45.4z"/>
</g>
</svg>
