<?xml version="1.0" encoding="utf-8"?>
<!-- Generator: Adobe Illustrator 24.1.1, SVG Export Plug-In . SVG Version: 6.00 Build 0)  -->
<svg version="1.1" id="Layer_1" xmlns="http://www.w3.org/2000/svg" xmlns:xlink="http://www.w3.org/1999/xlink" x="0px" y="0px"
	 viewBox="0 0 90 90.2" style="enable-background:new 0 0 90 90.2;fill: #ebf2fa;" xml:space="preserve">
<path d="M77.6,0H55.2c-1.1,0-2.1,0.9-2.1,2.1v83.7c-2.7,0.2-5.5,0.2-8.1,0V40.1c0-0.4-0.2-0.8-0.4-0.9l0,0l-15-24.6
	c-0.4-0.6-0.9-0.9-1.7-0.9c-0.8,0-1.3,0.4-1.7,0.9L11.1,39l0,0c-0.2,0.4-0.4,0.6-0.4,0.9v34.7c0,0.6,0.4,1.1,0.8,1.5
	c2.5,2.3,5.3,4.2,8.1,5.9c7,4.2,15,6.6,22.9,7.6c1.9,0.2,3.8,0.4,5.7,0.4c2.3,0,4.5-0.2,6.8-0.4c8.1-0.9,15.9-3.6,22.9-8
	c0.4-0.2,0.8-0.6,0.9-0.9c0.2-0.4,0.2-0.8,0.2-1.1V1.9C79.7,0.9,78.7,0,77.6,0z M22.9,42h9.5v41.3c-3.4-1.1-6.4-2.5-9.5-4.2V42z
	 M16.6,38.1l5.7-9.3c1.9,0.8,3.8,1.1,5.7,1.1c2.1,0,4-0.4,5.7-1.1l5.7,9.3H16.6L16.6,38.1z M28,19.5l3.6,5.7c-2.3,0.8-4.7,0.8-7,0
	L28,19.5z M14.9,42h4v34.7c-1.3-0.9-2.7-1.9-4-2.8V42z M41,85.4c-1.5-0.2-3-0.6-4.5-0.9V42H41V85.4z M75.5,78.8
	c-5.7,3.2-11.9,5.5-18.2,6.4V45.1h9.1v-4h-9.1v-4H63v-4h-5.7v-4h5.5v-4h-5.5v-4h9.1V17h-9.1v-3.6h5.5V9.3h-5.5V4.2h18.2V78.8z"/>
</svg>
